<?xml version="1.0" encoding="utf-8"?>
<!-- Generator: Adobe Illustrator 26.1.0, SVG Export Plug-In . SVG Version: 6.00 Build 0)  -->
<svg version="1.1" id="Layer_1" xmlns="http://www.w3.org/2000/svg" xmlns:xlink="http://www.w3.org/1999/xlink" x="0px" y="0px"
	 viewBox="0 0 2500 546" style="enable-background:new 0 0 2500 546;" xml:space="preserve">
<style type="text/css">
	.st0{fill:#FFFFFF;}
</style>
<path class="st0" d="M350.2,409.5c61.3-7.8,110.8-57.3,118.6-118.6c9.8-75.5-43.4-144.7-118.9-154.5c-11.8-1.5-23.8-1.5-35.6,0
	C253,144.2,203.5,193.7,195.7,255c-9.8,75.5,43.4,144.7,118.9,154.5C326.4,411.1,338.4,411.1,350.2,409.5L350.2,409.5z M358.6,16.2
	C480.2,29,576.3,125.1,589.1,246.7C605.2,409.9,469.2,546,305.9,529.8C184.3,517,88.2,420.9,75.4,299.3
	C59.2,136.1,195.3,0,358.6,16.2z M727.6,26.4h377.9c14.4,0,22.5,16.4,13.8,27.9L857.8,399.2h204.8c37.3,0,66.7,34,59,72.7
	c-5.7,28.4-32.3,47.8-61.2,47.8H650.1c-14.2,0-22.3-16.3-13.7-27.6L898,146.8H729.8c-28.9,0-55.6-19.4-61.2-47.8
	C660.8,60.4,690.2,26.4,727.6,26.4L727.6,26.4z M2367.4,27.8c39-8.2,73.3,21.3,73.3,58.8v415.6c0,14.5-16.8,22.6-28.1,13.6
	l-326-258.6v202.3c0,37.5-34.3,67.1-73.3,58.8c-28-5.9-47.1-31.9-47.1-60.5V43.7c0-14.5,16.8-22.6,28.1-13.6l326,258.6V88.2
	C2320.4,59.7,2339.6,33.7,2367.4,27.8L2367.4,27.8z M1518.7,14.9c199.6,0,361.3,115.5,361.3,258.1S1718.3,531,1518.7,531
	s-361.3-115.5-361.3-258.1S1319.1,14.9,1518.7,14.9z M1518.7,135.3c-137.9,0-240.9,72.7-240.9,137.6s103,137.6,240.9,137.6
	s240.9-72.6,240.9-137.6S1656.6,135.3,1518.7,135.3z"/>
</svg>
