<?xml version="1.0" encoding="UTF-8"?><svg id="a" xmlns="http://www.w3.org/2000/svg" viewBox="0 0 78.13 19.67"><defs><style>.d,.e{fill:#fff;}.e{fill-rule:evenodd;}</style></defs><g id="b"><g id="c"><path class="e" d="M4.95,4.1C9.12,.34,14.77-.2,17.67,3.03c2.91,3.23,1.79,8.78-2.39,12.54-4.17,3.76-9.82,4.29-12.72,1.06C-.35,13.41,.78,7.85,4.95,4.1m-.54-.6C9.03-.65,15.32-1.19,18.47,2.31c3.15,3.5,1.96,9.7-2.65,13.86-4.61,4.15-10.91,4.69-14.06,1.19C-1.39,13.86-.2,7.65,4.41,3.5"/><path class="e" d="M62.62,7.76l-1.81,5.99h6.74l1.89-1.96,.55,1.95h2.72l-1.26-3.21,2.94-2.87h-2.58l-1.6,1.68-.5-1.69h-2.73l1.19,2.89-2.4,2.44,.36-1.35h-2.57v-.24h1.66l.53-1.68h-1.61v-.28h.74l.52-1.64h-2.78Zm-6.7-.06h5.71l-.51,1.68h-1.69l-1.33,4.4h-2.32l1.32-4.36h-1.7l.52-1.72Zm-9.49,6.04h2.2l3.24-3-.89,3h2.21l1.8-6.09h-2.16l-3.27,3.03,.87-3.03h-2.16l-1.85,6.09Zm-8.55-1.7l-.51,1.73s2.17,.49,2.94-.2c0-.01,.78-.43,1.14-2.03,.46-1.59,.69-2.19,.69-2.19h1.77l-1.33,4.36h2.37l1.77-6.07h-6.43l-.94,3.2-.25,.77s-.24,.92-1.22,.42m-3.02-.31c-.83,.91-1.65,.46-1.65,.46-.49-.39-.26-1.31-.26-1.31,.31-1.26,1.04-1.57,1.06-1.59,.99-.38,1.3,.1,1.3,.11,.58,.96-.45,2.34-.45,2.34m2.86-2.88c-1.14-2.2-4-1.21-4.55-.96-1.29,.55-1.98,1.64-1.98,1.64-.53,.78-1.13,2.43-.2,3.52,1.07,1.2,2.99,.78,2.99,.77,1-.16,2.19-.56,3.14-1.95,.95-1.32,.83-2.58,.59-3.04m-17.36,4.86h2.59l1.9-6.32h2.92l-1.92,6.35h2.59l2.52-8.43h-8.03l-2.57,8.4Z"/><polygon class="e" points="24.55 14.74 24.93 14.74 24.45 16.35 25.97 14.74 26.37 14.74 25.71 16.93 25.35 16.93 25.81 15.34 24.3 16.94 23.93 16.94 24.55 14.74"/><polygon class="e" points="31.6 14.74 31.33 15.66 30.32 15.66 30.59 14.74 30.18 14.74 29.54 16.93 29.96 16.93 30.23 15.98 31.24 15.98 30.96 16.93 31.38 16.93 32.02 14.74 31.6 14.74"/><polygon class="e" points="69.76 14.74 69.49 15.66 68.48 15.66 68.75 14.74 68.33 14.74 67.7 16.93 68.11 16.93 68.38 15.98 69.39 15.98 69.12 16.93 69.54 16.93 70.17 14.74 69.76 14.74"/><polygon class="e" points="42.81 14.74 41.04 14.74 40.93 15.07 41.61 15.07 41.06 16.94 41.48 16.94 42.02 15.07 42.71 15.07 42.81 14.74"/><polygon class="e" points="75.56 14.75 73.79 14.75 73.68 15.08 74.35 15.08 73.81 16.95 74.22 16.95 74.77 15.08 75.45 15.08 75.56 14.75"/><polygon class="e" points="59.24 14.74 58.13 16.43 58.07 14.74 57.45 14.74 56.82 16.94 57.23 16.94 57.75 15.17 57.8 16.93 58.17 16.93 59.24 15.31 58.76 16.93 59.18 16.93 59.82 14.74 59.24 14.74"/><path class="e" d="M52.44,16.91l1.49-2.16h-.42l-1.1,1.63-.1-1.62h-.41l.14,2.16-.11,.16c-.28,.46-.75,.36-.75,.36v.37h.23c.5-.04,.65-.35,.65-.35l.36-.52h.02v-.03Z"/><path class="e" d="M47.53,16.11c-.39,.63-.77,.56-.77,.56-.17,0-.35-.12-.38-.36-.04-.43,.25-.99,.53-1.17,.32-.23,.61-.18,.7-.04,.18,.24,.07,.8-.07,1.02m.55-.84c-.07-.53-.57-.59-.71-.59-.36,0-.61,.24-.68,.32l.07-.26h-.37l-.87,3.04h.38l.3-1.05c.07,.09,.18,.19,.32,.23,.54,.11,.68-.04,.99-.31,.48-.46,.62-1,.57-1.38"/><path class="e" d="M37.02,15.44s.04-.48-.52-.42c-.25,.01-.55,.36-.73,.81,0,0-.23,.6,.16,.82,.28,.07,.4,0,.62-.15,.09-.09,.17-.17,.27-.33,0,.01,.35,0,.35,0,0,0-.31,.69-.97,.83,0,0-.57,.12-.76-.27-.26-.55-.07-.97,.2-1.5,.33-.66,1.66-1.04,1.78,.21h-.4"/><path class="e" d="M63.7,14.87c.67-.11,.52,.61,.52,.61h-1.14c.08-.21,.31-.55,.62-.61m.86,1.35c-1.08,1.08-1.61,.4-1.61,.4-.26-.35,.01-.92,.01-.92h1.53c.17-.83-.35-1.27-1-1-.63,.24-.87,1-.91,1.53-.04,.52,.42,.86,.76,.85,.9-.02,1.4-.86,1.4-.86,0,0-.18,0-.17,0"/><path class="e" d="M64.68,15.71h.31s.14-.64-.33-.87c0,0,.23,.46,.02,.87"/><path class="e" d="M62.87,15.03s-.74,.95-.5,1.73c0,0-.85-.91,.5-1.73"/><path class="e" d="M18.99,6.12h-1.11l-1.75,2.85s-.51,.75-1.18,1.59c-.65,.81-1.48,1.85-2.43,2.31-.57,.27-.89,.17-.97-.09-.09-.28,.17-.83,.41-1.22,.26-.43,1.92-3.06,2.37-3.85,.13-.22,.33-.58,.39-.93,.09-.51-.12-.98-.83-.88-1.36,.17-2.19,1.45-2.95,2.45l.16,.14c.5-.67,1.01-1.43,1.73-1.92,.23-.15,.45-.25,.7-.27,.46-.02,.17,.61,.07,.81-.13,.25-.29,.5-.4,.68-.4,.7-.99,1.61-1.43,2.3-.43,.68-.99,1.38-1.09,2.21-.04,.32,0,.64,.25,.85,.55,.5,1.39,.13,2.05-.31,1.02-.69,1.77-1.68,2.58-2.59-.19,.37-.44,.86-.62,1.28-.2,.45-.77,1.7,.13,1.84,1.27,.21,2.66-1.62,3.28-2.66l-.21-.13c-.2,.3-1.81,2.55-2.46,2.26-.3-.14,.05-.91,.15-1.14,.3-.7,.69-1.4,1.07-2.06,.86-1.5,2.1-3.53,2.1-3.53M1.37,13.17h1.11l1.75-2.85s.51-.76,1.18-1.6c.65-.81,1.47-1.84,2.43-2.31,.57-.27,.89-.17,.97,.09,.09,.28-.17,.83-.41,1.22-.26,.44-1.92,3.07-2.37,3.85-.13,.22-.33,.58-.39,.93-.09,.51,.12,.97,.83,.88,1.36-.17,2.19-1.45,2.94-2.45l-.16-.14c-.5,.67-1.01,1.43-1.73,1.93-.22,.15-.45,.26-.7,.27-.46,.02-.17-.61-.07-.81,.13-.25,.29-.5,.39-.68,.4-.7,.99-1.61,1.43-2.3,.43-.68,.99-1.38,1.09-2.21,.04-.32,0-.64-.25-.85-.55-.5-1.39-.13-2.06,.31-1.02,.69-1.77,1.68-2.58,2.59,.19-.37,.44-.86,.62-1.28,.2-.45,.77-1.7-.13-1.84-1.27-.21-2.66,1.62-3.28,2.66l.21,.13c.2-.3,1.8-2.55,2.46-2.26,.3,.14-.05,.91-.15,1.14-.3,.71-.69,1.4-1.07,2.06-.86,1.5-2.1,3.53-2.1,3.53"/><path class="d" d="M10.27,8.64c-.57,0-1.03,.46-1.03,1.03s.46,1.03,1.03,1.03,1.03-.46,1.03-1.03-.46-1.03-1.03-1.03Zm-.17,1.35c-.3,0-.54-.24-.54-.54s.24-.54,.54-.54,.54,.24,.54,.54-.24,.54-.54,.54Z"/><path class="d" d="M76.34,6.59h.13c.18,0,.29,0,.34-.02,.04-.01,.08-.04,.1-.07,.03-.03,.04-.07,.04-.12,0-.04,0-.08-.03-.11-.03-.03-.06-.06-.11-.07-.05-.01-.16-.02-.33-.02h-.13v.42Zm-.31,.87v-1.54h.31c.29,0,.46,0,.49,0,.1,0,.18,.03,.24,.06,.06,.03,.11,.08,.14,.15,.04,.06,.06,.14,.06,.22,0,.11-.04,.21-.11,.28-.07,.08-.18,.13-.31,.15,.05,.01,.08,.04,.11,.06,.02,.02,.06,.06,.1,.12,.01,.01,.05,.08,.11,.19l.18,.31h-.38l-.13-.25c-.08-.17-.16-.27-.22-.32-.05-.04-.13-.06-.21-.06h-.08v.63h-.31Zm.66-1.94c-.2,0-.39,.05-.57,.15-.18,.1-.33,.24-.43,.43-.11,.19-.16,.38-.16,.58s.05,.4,.15,.58c.1,.19,.25,.33,.43,.43,.18,.1,.38,.16,.58,.16s.39-.05,.58-.16c.18-.1,.33-.25,.43-.43,.1-.18,.15-.38,.15-.58s-.05-.4-.16-.58c-.1-.19-.25-.33-.43-.43-.18-.1-.37-.15-.57-.15m0-.29c.25,0,.49,.06,.72,.19,.23,.13,.41,.3,.54,.53,.13,.23,.19,.47,.19,.73s-.06,.49-.19,.72c-.13,.23-.31,.41-.54,.54-.23,.13-.47,.19-.72,.19s-.49-.06-.72-.19c-.23-.13-.41-.31-.54-.54-.13-.23-.19-.47-.19-.72s.06-.49,.2-.73c.13-.23,.31-.41,.54-.53,.23-.12,.47-.19,.71-.19"/></g></g></svg>