<?xml version="1.0" encoding="UTF-8"?><svg id="a" xmlns="http://www.w3.org/2000/svg" viewBox="0 0 96.09 26.85"><defs><style>.c{fill:#fff;}</style></defs><g id="b"><polygon class="c" points="17.63 2.41 0 2.41 0 8.42 5.69 8.42 5.69 26.23 11.96 26.23 11.96 8.42 17.63 8.42 17.63 2.41"/><path class="c" d="M66.24,26.22l-4.12-9.9,.35-.27c2.08-1.63,3.09-3.57,3.09-5.93,0-2.33-.81-4.19-2.48-5.7-1.48-1.33-3.62-2.01-6.36-2.01h-8.95V26.22h6.27V7.97h1.9c2.86,0,3.29,1.48,3.29,2.36,0,.97-.38,2.59-2.92,2.59h-1.32v2.95l4.72,10.36h6.55Z"/><polygon class="c" points="81.24 26.23 87.74 26.23 81.32 13.98 87.51 2.41 81.27 2.41 78.6 8.89 75.28 2.41 68.86 2.41 75.05 14.19 68.5 26.23 74.83 26.23 77.77 19.38 81.24 26.23"/><path class="c" d="M40.91,5.48c-2.41-2.45-5.33-3.69-8.69-3.69-3.56,0-6.61,1.22-9.06,3.64-2.45,2.41-3.7,5.4-3.7,8.88,0,3.45,1.24,6.43,3.67,8.86,2.44,2.44,5.42,3.67,8.87,3.67s6.46-1.23,8.88-3.65c2.42-2.42,3.65-5.41,3.65-8.88s-1.22-6.38-3.63-8.83Zm-.84,6.72c-.77,.71-1.15,1.43-1.14,2.13,0,.69,.39,1.38,1.13,2.05,.92,.83,1.14,1.94,.59,2.9-.58,1.01-1.66,1.37-2.88,.95-.9-.31-1.69-.29-2.29,.06-.61,.35-1.04,1.05-1.23,2.01-.24,1.19-1.1,1.97-2.19,2-.02,0-.04,0-.06,0-1.12,0-1.99-.78-2.24-2-.19-.95-.61-1.64-1.23-1.99-.61-.35-1.41-.38-2.31-.07-1.23,.41-2.3,.05-2.88-.96-.57-1-.32-2.08,.67-2.95,.69-.61,1.06-1.3,1.06-2,0-.71-.37-1.42-1.08-2.05-.98-.87-1.21-1.97-.63-2.96,.59-1,1.64-1.33,2.89-.91,.87,.29,1.66,.26,2.28-.1,.62-.36,1.04-1.03,1.22-1.94,.25-1.26,1.11-2.04,2.24-2.04h0c1.13,0,2.01,.8,2.26,2.04,.18,.92,.59,1.59,1.18,1.94,.61,.36,1.44,.38,2.39,.07,.78-.26,1.57-.15,2.17,.29,.63,.46,.96,1.02,.94,1.93,0,.41-.17,.96-.87,1.6Z"/><path class="c" d="M93.09,0c.52,0,1.01,.13,1.48,.39,.47,.26,.85,.62,1.11,1.1,.27,.48,.41,.98,.41,1.51s-.13,1.02-.4,1.49c-.26,.47-.64,.84-1.11,1.11-.47,.26-.97,.4-1.49,.4s-1.02-.13-1.49-.4c-.47-.26-.84-.63-1.11-1.11-.26-.47-.39-.97-.39-1.49,0-.52,.13-1.03,.4-1.51,.27-.48,.64-.85,1.11-1.1C92.08,.13,92.57,0,93.09,0h0Zm0,.59c-.41,0-.81,.1-1.19,.31-.38,.21-.68,.5-.89,.89-.22,.39-.33,.79-.33,1.21s.1,.82,.32,1.2c.21,.38,.51,.68,.89,.89,.38,.21,.78,.32,1.2,.32s.82-.11,1.2-.32c.38-.21,.68-.51,.89-.89,.21-.38,.32-.78,.32-1.2s-.11-.83-.33-1.21c-.22-.39-.52-.68-.9-.89-.38-.21-.78-.31-1.19-.31h0Zm-1.35,4.01V1.42h.64c.61,0,.94,0,1.02,0,.21,.02,.38,.06,.5,.13,.12,.07,.22,.17,.3,.3,.08,.14,.12,.29,.12,.46,0,.23-.08,.43-.23,.59-.15,.17-.36,.27-.63,.31,.1,.04,.17,.07,.22,.12,.05,.04,.13,.13,.21,.24,.03,.03,.1,.16,.24,.39l.37,.64h-.8l-.27-.51c-.18-.35-.33-.57-.44-.66-.12-.09-.27-.13-.45-.13h-.16v1.31h-.64Zm.64-1.81h.26c.37,0,.6-.01,.69-.04,.09-.03,.16-.08,.21-.15,.06-.07,.08-.15,.08-.24s-.02-.17-.08-.24c-.05-.07-.12-.12-.22-.15-.09-.03-.33-.04-.69-.04h-.26v.87h0Z"/></g></svg>