<?xml version="1.0" encoding="UTF-8"?><svg id="a" xmlns="http://www.w3.org/2000/svg" xmlns:xlink="http://www.w3.org/1999/xlink" viewBox="0 0 166.2 30.7"><defs><style>.c{fill:#fff;}.d{fill:#fc3f1d;}.e{fill:#fed42b;}.f{clip-path:url(#b);}.g{fill:none;}</style><clipPath id="b"><path class="g" d="M47.1,30c8.3,0,15-6.7,15-15S55.4,0,47.1,0s-15,6.7-15,15c-.1,8.3,6.7,15,15,15Z"/></clipPath></defs><path class="c" d="M78.1,26h3.3l4.6-17.1V26h3.7V3.4h-5.1l-4.6,16.6-4.6-16.6h-5.2V26h3.2V8.9l4.7,17.1Zm27.1-11.2c0-4-2-5.5-6.1-5.5-2.6,0-4.6,.8-5.8,1.5v3.2c1-.8,3.3-1.6,5.3-1.6s2.7,.7,2.7,2.4v.9h-.6c-5.9,0-8.6,2-8.6,5.3s2,5.2,5,5.2c2.3,0,3.3-.7,4-1.5h.2c0,.4,.2,1,.3,1.3h3.8c-.1-1.3-.2-2.7-.2-4v-7.2Zm-3.9,7.3c-.5,.7-1.4,1.3-2.8,1.3-1.6,0-2.4-1-2.4-2.4,0-1.9,1.3-2.6,4.7-2.6h.6v3.7h-.1Zm10.6-12.5h-3.6V30.7h3.9v-6.6c1,1.5,2.4,2.2,4.1,2.2,3.8,0,6.4-3,6.4-8.5s-2.5-8.5-6.2-8.5c-1.8,0-3.3,.8-4.4,2.4l-.2-2.1Zm3.3,13.7c-2,0-3.1-1.7-3.1-5.4s1.1-5.5,3.3-5.5,3.2,1.7,3.2,5.4-1.1,5.5-3.4,5.5Zm19.6,2.7h4.4l-6.2-8.8,5.5-7.6h-3.9l-5.5,7.6v-7.6h-3.9V26h3.9v-8l5.7,8Zm17.4-1.1v-3.2c-1.2,.8-3.2,1.5-5.1,1.5-2.8,0-3.9-1.3-4.1-4.1h9.3v-2.1c0-5.7-2.5-7.8-6.4-7.8-4.7,0-7,3.6-7,8.6,0,5.7,2.8,8.5,7.7,8.5,2.7,0,4.5-.6,5.6-1.4Zm-6.3-12.5c1.9,0,2.5,1.6,2.5,3.6v.3h-5.4c.1-2.6,1.1-3.9,2.9-3.9Zm20.3,.3v-3.1h-13v3.1h4.6v13.3h3.9V12.7h4.5Z"/><path class="e" d="M47.1,30c8.3,0,15-6.7,15-15S55.4,0,47.1,0s-15,6.7-15,15c-.1,8.3,6.7,15,15,15Z"/><circle class="d" cx="15" cy="15" r="15"/><path class="c" d="M17.2,8.4h-1.5c-2.6,0-3.9,1.3-3.9,3.3,0,2.2,.9,3.3,2.8,4.6l1.5,1.1-4.3,6.7h-3.5l4.1-6.1c-2.4-1.7-3.7-3.3-3.7-6.1,0-3.5,2.4-5.9,7-5.9h4.6V24h-3V8.4h-.1Z"/><g class="f"><path d="M39.7,8.2l-13.2,17.3,3.5,4,9.8-13-1,7.1,5.5,1.9,6.7-10.7c-.3,2-.8,6.6,3.6,8,6.9,2.1,12.9-10.3,15.7-16.6l-4-2.1c-3.1,6.5-7.9,13.7-9.8,13.2-1.9-.5-.2-6.6,.9-10.5v-.1l-6.1-2.1-7.3,11.9,1-6.5-5.3-1.8Z"/></g></svg>