<?xml version="1.0" encoding="utf-8"?>
<!-- Generator: Adobe Illustrator 26.1.0, SVG Export Plug-In . SVG Version: 6.00 Build 0)  -->
<svg version="1.1" id="Layer_1" xmlns="http://www.w3.org/2000/svg" xmlns:xlink="http://www.w3.org/1999/xlink" x="0px" y="0px"
	 viewBox="0 0 595.28 304.11" style="enable-background:new 0 0 595.28 304.11;" xml:space="preserve">
<style type="text/css">
	.st0{fill:#C7C6C6;}
	.st1{fill:#EDEDED;}
	.st2{fill:#FFFFFF;}
	.st3{fill:url(#SVGID_1_);}
	.st4{fill:#A9A9AA;}
	.st5{fill:url(#SVGID_00000061468062407180414050000004259203582787368118_);}
	.st6{fill:url(#SVGID_00000112611354791285203810000010538812727082265531_);}
	.st7{fill:url(#SVGID_00000003819826444578798140000002277680407985349783_);}
	.st8{fill:url(#SVGID_00000003825526950007581320000013436167144991824517_);}
	.st9{fill:url(#SVGID_00000026152210501434101370000015524075895486254008_);}
	.st10{fill:url(#SVGID_00000023967736754592109500000014668816999376247198_);}
	.st11{fill:url(#SVGID_00000027587200350628961950000011307900126552579988_);}
</style>
<g>
	<g>
		<path class="st0" d="M378.57,196.3c-5.6-5.71-12.41-8.58-20.24-8.58c-8.29,0-15.39,2.84-21.13,8.47
			c-5.71,5.63-8.61,12.58-8.61,20.7c0,8.04,2.87,14.99,8.55,20.67s12.63,8.55,20.67,8.55c8.1,0,15.04-2.87,20.7-8.53
			c5.66-5.66,8.53-12.63,8.53-20.7C387.02,208.93,384.18,202.01,378.57,196.3z M377.98,228.48c-1.37,2.36-3.86,3.19-6.7,2.23
			c-2.09-0.72-3.94-0.67-5.34,0.13c-1.42,0.83-2.41,2.44-2.87,4.69c-0.56,2.76-2.57,4.59-5.12,4.67c-0.05,0-0.08,0-0.13,0
			c-2.6,0-4.64-1.82-5.2-4.67c-0.46-2.2-1.42-3.81-2.87-4.64c-1.42-0.83-3.27-0.88-5.39-0.16c-2.87,0.97-5.36,0.13-6.7-2.23
			c-1.34-2.33-0.75-4.85,1.58-6.89c1.61-1.42,2.47-3.03,2.47-4.67c0-1.66-0.86-3.3-2.52-4.77c-2.28-2.01-2.82-4.61-1.45-6.92
			c1.39-2.33,3.83-3.08,6.73-2.12c2.04,0.7,3.89,0.62,5.31-0.24c1.45-0.83,2.41-2.39,2.84-4.5c0.56-2.92,2.57-4.75,5.23-4.75h0.03
			c2.63,0,4.69,1.85,5.26,4.75c0.43,2.15,1.37,3.7,2.76,4.53c1.42,0.83,3.35,0.88,5.55,0.16c1.82-0.59,3.67-0.35,5.07,0.67
			c1.45,1.07,2.23,2.39,2.2,4.5c0,0.94-0.4,2.25-2.04,3.73c-1.8,1.64-2.68,3.32-2.65,4.96c0,1.61,0.91,3.22,2.65,4.77
			C378.74,223.65,379.27,226.25,377.98,228.48z"/>
	</g>
	<g>
		<path class="st1" d="M251.29,211.37c-16.52,0-29.92-13.43-29.92-29.92V97.92c0-16.49,13.43-29.92,29.92-29.92h83.52
			c16.49,0,29.92,13.43,29.92,29.92v83.52c0,16.49-13.43,29.92-29.92,29.92H251.29z"/>
	</g>
	<g>
		<path d="M334.82,80.6h-83.52c-9.57,0-17.32,7.75-17.32,17.32v83.52c0,9.57,7.75,17.32,17.32,17.32h83.52
			c9.57,0,17.32-7.75,17.32-17.32V97.92C352.14,88.35,344.36,80.6,334.82,80.6"/>
	</g>
	<g>
		<path class="st2" d="M281.48,118.46h6.86l18.56,42.5h-7.83l-4.29-10.19h-19.95l-4.34,10.19h-7.59L281.48,118.46z M292.1,144.2
			l-7.29-16.87l-7.24,16.87H292.1z"/>
		<path class="st2" d="M314.57,118.78h7.4v42.18h-7.4V118.78z"/>
	</g>
	<g>
		<g>
			<path class="st1" d="M194.82,104.41l-2.31-1.37c3.78-6.33,10.43-8.45,18.23-5.82c4.67,1.58,8.85,1.42,12.07-0.46l1.34,2.33
				c-3.91,2.28-8.88,2.52-14.29,0.7C203.29,97.55,197.93,99.18,194.82,104.41z"/>
		</g>
		<g>
			<path class="st1" d="M194.82,124.44l-2.31-1.37c3.78-6.33,10.43-8.45,18.23-5.82c4.67,1.58,8.85,1.42,12.07-0.46l1.34,2.33
				c-3.91,2.28-8.88,2.52-14.29,0.7C203.29,117.55,197.93,119.21,194.82,124.44z"/>
		</g>
		<g>
			<path class="st1" d="M240.11,240.62c-3.62-6.38-2.12-13.19,4.18-18.72c3.7-3.24,5.66-6.89,5.66-10.54h2.68
				c0,4.42-2.28,8.77-6.57,12.55c-5.31,4.67-6.6,10.14-3.62,15.39L240.11,240.62z"/>
		</g>
		<g>
			<rect x="269.77" y="211.24" class="st1" width="2.68" height="37.54"/>
		</g>
		<g>
			<rect x="269.77" y="211.24" class="st1" width="2.68" height="37.54"/>
		</g>
		<g>
			<rect x="289.8" y="211.18" class="st1" width="2.68" height="26.14"/>
		</g>
		<g>
			<rect x="313.93" y="43.03" class="st1" width="2.68" height="24.99"/>
		</g>
		<g>
			<rect x="294" y="24" class="st1" width="2.68" height="44.03"/>
		</g>
		<g>
			<rect x="273.71" y="24" class="st1" width="2.68" height="44.03"/>
		</g>
		<g>
			<rect x="197.99" y="157.34" class="st1" width="23.52" height="2.68"/>
		</g>
		<g>
			
				<linearGradient id="SVGID_1_" gradientUnits="userSpaceOnUse" x1="304.3145" y1="310.7095" x2="519.7617" y2="310.7095" gradientTransform="matrix(1 0 0 -1 -298.3145 449.3604)">
				<stop  offset="0" style="stop-color:#FFFFFF;stop-opacity:0"/>
				<stop  offset="1" style="stop-color:#FFFFFF"/>
			</linearGradient>
			<rect x="6" y="137.31" class="st3" width="215.45" height="2.68"/>
		</g>
		<g>
			<path class="st1" d="M336.13,68.27l-2.63-0.54c1.21-5.95,3.89-10.27,7.75-12.5c3.78-2.2,8.74-2.33,14.32-0.46
				c6.41,2.2,12.04,0.38,15.04-4.88l2.33,1.34c-3.7,6.46-10.54,8.71-18.23,6.09c-4.83-1.64-9.01-1.56-12.12,0.24
				C339.4,59.36,337.17,63.09,336.13,68.27z"/>
		</g>
		<g>
			<path class="st1" d="M377.8,179.41l-2.55-0.86c1.64-4.83,1.56-9.01-0.24-12.12c-1.82-3.19-5.52-5.42-10.7-6.46l0.54-2.63
				c5.95,1.21,10.27,3.89,12.5,7.75C379.54,168.87,379.7,173.83,377.8,179.41z"/>
		</g>
		<g>
			<rect x="309.77" y="230.22" class="st1" width="2.68" height="51.72"/>
		</g>
		<g>
			<path class="st4" d="M222.36,143.56h-1.8c-2.2,0-4-1.8-4-4v-1.8c0-2.2,1.8-4,4-4h1.8c2.2,0,4,1.8,4,4v1.8
				C226.35,141.76,224.56,143.56,222.36,143.56z M221.34,138.65c0.03,0.05,0.08,0.08,0.11,0.11c0.05-0.03,0.08-0.08,0.11-0.11
				c-0.03-0.05-0.08-0.08-0.11-0.11C221.39,138.57,221.37,138.62,221.34,138.65z"/>
		</g>
		<g>
			<path class="st4" d="M222.36,124.17h-1.8c-2.2,0-4-1.8-4-4v-1.8c0-2.2,1.8-4,4-4h1.8c2.2,0,4,1.8,4,4v1.8
				C226.35,122.37,224.56,124.17,222.36,124.17z M221.34,119.26c0.03,0.05,0.08,0.08,0.11,0.11c0.05-0.03,0.08-0.08,0.11-0.11
				c-0.03-0.05-0.08-0.08-0.11-0.11C221.39,119.18,221.37,119.24,221.34,119.26z"/>
		</g>
		<g>
			<path class="st4" d="M222.36,104.3h-1.8c-2.2,0-4-1.8-4-4v-1.8c0-2.2,1.8-4,4-4h1.8c2.2,0,4,1.8,4,4v1.8
				C226.35,102.51,224.56,104.3,222.36,104.3z M221.34,99.4c0.03,0.05,0.08,0.08,0.11,0.11c0.05-0.03,0.08-0.08,0.11-0.11
				c-0.03-0.05-0.08-0.08-0.11-0.11C221.39,99.32,221.37,99.37,221.34,99.4z"/>
		</g>
		<g>
			<path class="st4" d="M222.36,163.56h-1.8c-2.2,0-4-1.8-4-4v-1.8c0-2.2,1.8-4,4-4h1.8c2.2,0,4,1.8,4,4v1.8
				C226.35,161.76,224.56,163.56,222.36,163.56z M221.34,158.65c0.03,0.05,0.08,0.08,0.11,0.11c0.05-0.03,0.08-0.08,0.11-0.11
				c-0.03-0.05-0.08-0.08-0.11-0.11C221.39,158.57,221.37,158.63,221.34,158.65z"/>
		</g>
		<g>
			<path class="st4" d="M197.13,163.56h-1.8c-2.2,0-4-1.8-4-4v-1.8c0-2.2,1.8-4,4-4h1.8c2.2,0,4,1.8,4,4v1.8
				C201.15,161.76,199.35,163.56,197.13,163.56z M196.11,158.65c0.03,0.05,0.08,0.08,0.11,0.11c0.05-0.03,0.08-0.08,0.11-0.11
				c-0.03-0.05-0.08-0.08-0.11-0.11C196.19,158.57,196.16,158.63,196.11,158.65z"/>
		</g>
		<g>
			
				<linearGradient id="SVGID_00000052791681314812229580000006085323283512897446_" gradientUnits="userSpaceOnUse" x1="660.3185" y1="339.7218" x2="888.3145" y2="339.7218" gradientTransform="matrix(1 0 0 -1 -298.3145 449.3604)">
				<stop  offset="0" style="stop-color:#FFFFFF"/>
				<stop  offset="1" style="stop-color:#FFFFFF;stop-opacity:0"/>
			</linearGradient>
			<path style="fill:url(#SVGID_00000052791681314812229580000006085323283512897446_);" d="M381.55,141.9c-1.93,0-4-0.35-6.14-1.07
				c-4.67-1.58-8.85-1.42-12.07,0.46l-1.34-2.33c3.91-2.28,8.85-2.52,14.29-0.7c6.44,2.17,11.66,0.54,15.1-4.69
				c3.03-4.64,26.38-41.08,31.05-48.34c3.14-4.91,8.5-7.83,14.32-7.83H590v2.68H436.76c-4.91,0-9.44,2.47-12.07,6.6
				c-4.64,7.27-28.02,43.71-31.05,48.37C390.67,139.56,386.48,141.9,381.55,141.9z"/>
		</g>
		<g>
			
				<linearGradient id="SVGID_00000043430126031671317220000016107425240295409586_" gradientUnits="userSpaceOnUse" x1="662.9731" y1="349.9647" x2="888.3145" y2="349.9647" gradientTransform="matrix(1 0 0 -1 -298.3145 449.3604)">
				<stop  offset="0" style="stop-color:#FFFFFF"/>
				<stop  offset="1" style="stop-color:#FFFFFF;stop-opacity:0"/>
			</linearGradient>
			
				<rect x="364.66" y="98.06" style="fill:url(#SVGID_00000043430126031671317220000016107425240295409586_);" width="225.34" height="2.68"/>
		</g>
		<g>
			
				<linearGradient id="SVGID_00000066512527728579102470000004054503233525645475_" gradientUnits="userSpaceOnUse" x1="663.0267" y1="329.9617" x2="888.3145" y2="329.9617" gradientTransform="matrix(1 0 0 -1 -298.3145 449.3604)">
				<stop  offset="0" style="stop-color:#FFFFFF"/>
				<stop  offset="1" style="stop-color:#FFFFFF;stop-opacity:0"/>
			</linearGradient>
			
				<rect x="364.71" y="118.06" style="fill:url(#SVGID_00000066512527728579102470000004054503233525645475_);" width="225.29" height="2.68"/>
		</g>
		<g>
			<path class="st4" d="M365.62,124.31h-1.8c-2.2,0-4.02-1.8-4.02-4v-1.8c0-2.2,1.8-4,4.02-4h1.8c2.2,0,4.02,1.8,4.02,4v1.8
				C369.62,122.51,367.82,124.31,365.62,124.31z M364.6,119.4c0.03,0.05,0.08,0.08,0.11,0.11c0.05-0.03,0.08-0.08,0.11-0.11
				c-0.03-0.05-0.08-0.08-0.11-0.11C364.69,119.32,364.63,119.35,364.6,119.4z"/>
		</g>
		<g>
			<path class="st4" d="M365.62,143.69h-1.8c-2.2,0-4.02-1.8-4.02-4v-1.8c0-2.2,1.8-4,4.02-4h1.8c2.2,0,4.02,1.8,4.02,4v1.8
				C369.62,141.9,367.82,143.69,365.62,143.69z M364.6,138.78c0.03,0.05,0.08,0.08,0.11,0.11c0.05-0.03,0.08-0.08,0.11-0.11
				c-0.03-0.05-0.08-0.08-0.11-0.11C364.69,138.7,364.63,138.73,364.6,138.78z"/>
		</g>
		<g>
			<path class="st4" d="M365.62,163.56h-1.8c-2.2,0-4.02-1.8-4.02-4.02v-1.8c0-2.2,1.8-4,4.02-4h1.8c2.2,0,4.02,1.8,4.02,4v1.8
				C369.62,161.76,367.82,163.56,365.62,163.56z M364.6,158.65c0.03,0.05,0.08,0.08,0.11,0.11c0.05-0.03,0.08-0.08,0.11-0.11
				c-0.03-0.03-0.08-0.08-0.11-0.11C364.69,158.57,364.63,158.63,364.6,158.65z"/>
		</g>
		<g>
			<path class="st4" d="M378.07,183.59h-1.8c-2.2,0-4-1.8-4-4v-1.8c0-2.2,1.8-4,4-4h1.8c2.2,0,4,1.8,4,4v1.8
				C382.06,181.79,380.26,183.59,378.07,183.59z M377.05,178.68c0.03,0.05,0.08,0.08,0.11,0.11c0.05-0.03,0.08-0.08,0.11-0.11
				c-0.03-0.05-0.08-0.08-0.11-0.11C377.13,178.6,377.07,178.63,377.05,178.68z"/>
		</g>
		<g>
			<path class="st4" d="M365.62,104.3h-1.8c-2.2,0-4.02-1.8-4.02-4v-1.8c0-2.2,1.8-4,4.02-4h1.8c2.2,0,4.02,1.8,4.02,4v1.8
				C369.62,102.51,367.82,104.3,365.62,104.3z M364.6,99.4c0.03,0.05,0.08,0.08,0.11,0.11c0.05-0.03,0.08-0.08,0.11-0.11
				c-0.03-0.05-0.08-0.08-0.11-0.11C364.69,99.32,364.63,99.37,364.6,99.4z"/>
		</g>
		<g>
			<path class="st4" d="M296.23,73.12h-1.8c-2.2,0-4-1.8-4-4v-1.8c0-2.2,1.8-4,4-4h1.8c2.2,0,4,1.8,4,4v1.8
				C300.25,71.32,298.46,73.12,296.23,73.12z M295.24,68.21c0.03,0.05,0.08,0.08,0.11,0.11c0.05-0.03,0.08-0.08,0.11-0.11
				c-0.03-0.05-0.08-0.08-0.11-0.11C295.29,68.13,295.27,68.18,295.24,68.21z"/>
		</g>
		<g>
			<path class="st4" d="M296.23,29.06h-1.8c-2.2,0-4-1.8-4-4v-1.8c0-2.2,1.8-4,4-4h1.8c2.2,0,4,1.8,4,4v1.8
				C300.25,27.27,298.46,29.06,296.23,29.06z M295.24,24.16c0.03,0.05,0.08,0.08,0.11,0.11c0.05-0.03,0.08-0.08,0.11-0.11
				c-0.03-0.05-0.08-0.08-0.11-0.11C295.29,24.08,295.27,24.13,295.24,24.16z"/>
		</g>
		<g>
			<path class="st4" d="M316.1,73.12h-1.8c-2.2,0-4-1.8-4-4v-1.8c0-2.2,1.8-4,4-4h1.8c2.2,0,4,1.8,4,4v1.8
				C320.12,71.32,318.32,73.12,316.1,73.12z M315.08,68.21c0.03,0.05,0.08,0.08,0.11,0.11c0.05-0.03,0.08-0.08,0.11-0.11
				c-0.03-0.05-0.08-0.08-0.11-0.11C315.16,68.13,315.13,68.18,315.08,68.21z"/>
		</g>
		<g>
			<path class="st4" d="M316.1,47.91h-1.8c-2.2,0-4-1.8-4-4v-1.8c0-2.2,1.8-4,4-4h1.8c2.2,0,4,1.8,4,4v1.8
				C320.12,46.12,318.32,47.91,316.1,47.91z M315.08,43.01c0.03,0.05,0.08,0.08,0.11,0.11c0.05-0.03,0.08-0.08,0.11-0.11
				c-0.03-0.05-0.08-0.08-0.11-0.11C315.16,42.93,315.13,42.95,315.08,43.01z"/>
		</g>
		<g>
			<path class="st4" d="M335.91,73.12h-1.8c-2.2,0-4-1.8-4-4v-1.8c0-2.2,1.8-4,4-4h1.8c2.2,0,4,1.8,4,4v1.8
				C339.94,71.32,338.14,73.12,335.91,73.12z M334.9,68.21c0.03,0.05,0.08,0.08,0.11,0.11c0.05-0.03,0.08-0.08,0.11-0.11
				c-0.03-0.05-0.08-0.08-0.11-0.11C334.98,68.13,334.95,68.16,334.9,68.21z"/>
		</g>
		<g>
			<path class="st4" d="M275.88,73.12h-1.8c-2.2,0-4-1.8-4-4v-1.8c0-2.2,1.8-4,4-4h1.8c2.2,0,4,1.8,4,4v1.8
				C279.9,71.32,278.1,73.12,275.88,73.12z M274.89,68.21c0.03,0.05,0.08,0.08,0.11,0.11c0.05-0.03,0.08-0.08,0.11-0.11
				c-0.03-0.05-0.08-0.08-0.11-0.11C274.94,68.13,274.91,68.18,274.89,68.21z"/>
		</g>
		<g>
			<path class="st4" d="M275.88,29.01h-1.8c-2.2,0-4-1.8-4-4v-1.8c0-2.2,1.8-4,4-4h1.8c2.2,0,4,1.8,4,4v1.8
				C279.9,27.21,278.1,29.01,275.88,29.01z M274.89,24.1c0.03,0.05,0.08,0.08,0.11,0.11c0.05-0.03,0.08-0.08,0.11-0.11
				c-0.03-0.05-0.08-0.08-0.11-0.11C274.94,24.02,274.91,24.05,274.89,24.1z"/>
		</g>
		<g>
			<path class="st4" d="M252.04,216.28h-1.8c-2.2,0-4-1.8-4-4v-1.8c0-2.2,1.8-4,4-4h1.8c2.2,0,4,1.8,4,4v1.8
				C256.04,214.48,254.24,216.28,252.04,216.28z M251.02,211.37c0.03,0.05,0.08,0.08,0.11,0.11c0.05-0.03,0.08-0.08,0.11-0.11
				c-0.03-0.05-0.08-0.08-0.11-0.11C251.1,211.29,251.05,211.32,251.02,211.37z"/>
		</g>
		<g>
			<path class="st4" d="M272.07,216.28h-1.8c-2.2,0-4-1.8-4-4v-1.8c0-2.2,1.8-4,4-4h1.8c2.2,0,4,1.8,4,4v1.8
				C276.07,214.48,274.27,216.28,272.07,216.28z M271.05,211.37c0.03,0.05,0.08,0.08,0.11,0.11c0.05-0.03,0.08-0.08,0.11-0.11
				c-0.03-0.05-0.08-0.08-0.11-0.11C271.13,211.29,271.08,211.32,271.05,211.37z"/>
		</g>
		<g>
			<path class="st4" d="M272.07,254.08h-1.8c-2.2,0-4-1.8-4-4v-1.8c0-2.2,1.8-4,4-4h1.8c2.2,0,4,1.8,4,4v1.8
				C276.07,252.29,274.27,254.08,272.07,254.08z M271.05,249.18c0.03,0.05,0.08,0.08,0.11,0.11c0.05-0.03,0.08-0.08,0.11-0.11
				c-0.03-0.05-0.08-0.08-0.11-0.11C271.13,249.1,271.08,249.15,271.05,249.18z"/>
		</g>
		<g>
			<path class="st4" d="M292.1,216.33h-1.8c-2.2,0-4-1.8-4-4v-1.8c0-2.2,1.8-4,4-4h1.8c2.2,0,4,1.8,4,4v1.8
				C296.12,214.53,294.33,216.33,292.1,216.33z M291.08,211.42c0.03,0.05,0.08,0.08,0.11,0.11c0.05-0.03,0.08-0.08,0.11-0.11
				c-0.03-0.05-0.08-0.08-0.11-0.11C291.16,211.34,291.14,211.37,291.08,211.42z"/>
		</g>
		<g>
			<path class="st4" d="M292.1,241.53h-1.8c-2.2,0-4-1.8-4-4v-1.8c0-2.2,1.8-4,4-4h1.8c2.2,0,4,1.8,4,4v1.8
				C296.12,239.74,294.33,241.53,292.1,241.53z M291.08,236.63c0.03,0.05,0.08,0.08,0.11,0.11c0.05-0.03,0.08-0.08,0.11-0.11
				c-0.03-0.05-0.08-0.08-0.11-0.11C291.16,236.55,291.14,236.6,291.08,236.63z"/>
		</g>
		<g>
			<path class="st4" d="M312.08,235.37h-1.8c-2.2,0-4-1.8-4-4.02v-1.8c0-2.2,1.8-4.02,4-4.02h1.8c2.2,0,4,1.8,4,4.02v1.8
				C316.07,233.57,314.28,235.37,312.08,235.37z M311.06,230.46c0.03,0.03,0.08,0.08,0.11,0.11c0.05-0.03,0.08-0.08,0.11-0.11
				c-0.03-0.05-0.08-0.08-0.11-0.11C311.14,230.38,311.09,230.41,311.06,230.46z"/>
		</g>
		<g>
			<path class="st4" d="M312.08,285.78L312.08,285.78h-1.8c-2.2,0-4-1.8-4-4v-1.8c0-2.2,1.8-4,4-4h1.8c2.2,0,4,1.8,4,4v1.8
				c0,1.07-0.43,2.09-1.18,2.84C314.14,285.37,313.15,285.78,312.08,285.78z M311.06,280.87c0.03,0.05,0.08,0.08,0.11,0.11
				c0.05-0.03,0.08-0.08,0.11-0.11c-0.03-0.05-0.08-0.08-0.11-0.11c-0.03,0.03-0.03,0.03-0.05,0.05
				C311.09,280.84,311.09,280.87,311.06,280.87z M312.08,280.41L312.08,280.41L312.08,280.41L312.08,280.41z"/>
		</g>
		<g>
			
				<linearGradient id="SVGID_00000151532153240400931530000004975660607074821000_" gradientUnits="userSpaceOnUse" x1="305.1993" y1="297.5441" x2="493.0821" y2="297.5441" gradientTransform="matrix(1 0 0 -1 -298.3145 449.3604)">
				<stop  offset="0" style="stop-color:#FFFFFF;stop-opacity:0"/>
				<stop  offset="1" style="stop-color:#FFFFFF"/>
			</linearGradient>
			<path style="fill:url(#SVGID_00000151532153240400931530000004975660607074821000_);" d="M149.4,180.64H6.88v-2.68H149.4
				c4.91,0,9.44-2.47,12.07-6.6c10.48-16.36,28.48-44.4,31.05-48.37l2.25,1.47c-2.6,3.94-20.57,31.99-31.05,48.34
				C160.61,177.72,155.24,180.64,149.4,180.64z"/>
		</g>
		<g>
			
				<linearGradient id="SVGID_00000175305707781054547630000000216922997788840336_" gradientUnits="userSpaceOnUse" x1="305.1993" y1="317.547" x2="493.0821" y2="317.547" gradientTransform="matrix(1 0 0 -1 -298.3145 449.3604)">
				<stop  offset="0" style="stop-color:#FFFFFF;stop-opacity:0"/>
				<stop  offset="1" style="stop-color:#FFFFFF"/>
			</linearGradient>
			<path style="fill:url(#SVGID_00000175305707781054547630000000216922997788840336_);" d="M149.4,160.64H6.88v-2.68H149.4
				c4.91,0,9.44-2.47,12.07-6.6c10.48-16.36,28.48-44.4,31.05-48.37l2.25,1.47c-2.6,3.94-20.57,31.99-31.05,48.34
				C160.61,157.72,155.24,160.64,149.4,160.64z"/>
		</g>
		<g>
			<path class="st1" d="M285.53,296.88c-5.82,0-11.18-2.92-14.32-7.83c-10.48-16.36-28.45-44.38-31.05-48.34l2.25-1.47
				c2.6,3.97,20.57,32.02,31.05,48.37c2.65,4.13,7.16,6.6,12.07,6.6V296.88z"/>
		</g>
		<g>
			
				<linearGradient id="SVGID_00000005959339342020410290000011143511282704213142_" gradientUnits="userSpaceOnUse" x1="583.8462" y1="153.8232" x2="888.0196" y2="153.8232" gradientTransform="matrix(1 0 0 -1 -298.3145 449.3604)">
				<stop  offset="0" style="stop-color:#FFFFFF"/>
				<stop  offset="1" style="stop-color:#FFFFFF;stop-opacity:0"/>
			</linearGradient>
			
				<rect x="285.53" y="294.2" style="fill:url(#SVGID_00000005959339342020410290000011143511282704213142_);" width="304.17" height="2.68"/>
		</g>
		<g>
			
				<linearGradient id="SVGID_00000005234392074196821440000007385401915112071055_" gradientUnits="userSpaceOnUse" x1="668.9525" y1="420.5381" x2="887.5637" y2="420.5381" gradientTransform="matrix(1 0 0 -1 -298.3145 449.3604)">
				<stop  offset="0" style="stop-color:#FFFFFF"/>
				<stop  offset="1" style="stop-color:#FFFFFF;stop-opacity:0"/>
			</linearGradient>
			<path style="fill:url(#SVGID_00000005234392074196821440000007385401915112071055_);" d="M372.89,51.29l-2.25-1.47
				c1.13-1.72,3.65-5.76,6.84-10.89c4.59-7.37,10.3-16.54,15.55-24.75c3.14-4.91,8.5-7.83,14.32-7.83h181.9v2.68h-181.9
				c-4.91,0-9.44,2.47-12.07,6.6c-5.26,8.2-10.94,17.38-15.53,24.72C376.54,45.5,374.02,49.55,372.89,51.29z"/>
		</g>
	</g>
</g>
</svg>
