<svg xmlns="http://www.w3.org/2000/svg" width="60" height="38" viewBox="0 0 60 38" fill="none">
    <path d="M35.6629 9.97167L40.4236 18.6697H29.007L33.7677 27.3677M1.8811 15.7703V21.569M54.2948 35.1147C55.9045 34.2797 57.2174 32.9459 58.0394 31.3107C58.9756 29.4551 58.9756 27.0197 58.9756 22.1489V15.1905C58.9756 10.3196 58.9756 7.88413 58.0394 6.02856C57.2174 4.39333 55.9045 3.05961 54.2948 2.2246C52.4681 1.27362 50.0707 1.27368 45.2757 1.27368H24.1549C19.36 1.27368 16.9625 1.27362 15.1358 2.2246C13.5261 3.05961 12.2132 4.39333 11.3912 6.02856C10.455 7.88413 10.455 10.3196 10.455 15.1905V22.1489C10.455 27.0197 10.455 29.4551 11.3912 31.3107C12.2132 32.9459 13.5261 34.2797 15.1358 35.1147C16.9625 36.0656 19.36 36.0657 24.1549 36.0657H45.2757C50.0592 36.0657 52.4567 36.0656 54.2948 35.1147Z" stroke="white" stroke-width="2" stroke-linecap="round" stroke-linejoin="round"/>
</svg>