<svg xmlns="http://www.w3.org/2000/svg" width="56" height="56" viewBox="0 0 56 56" fill="none">
    <path d="M30.0678 43.6226L27.7007 41.8201L29.5042 39.4543M27.8275 41.806C35.9995 41.806 42.6357 35.1874 42.6357 27.0057C42.6357 18.8381 36.0136 12.2054 27.8275 12.2054C19.6415 12.2054 13.0195 18.824 13.0195 27.0057C13.0195 30.7657 14.4143 34.1876 16.725 36.7928M54.5976 32.1456V23.6823C54.5976 22.8515 53.9214 22.1755 53.0901 22.1755H51.6811C50.9626 22.1755 50.3708 21.6685 50.2158 20.9644C49.8777 19.4295 49.3704 17.9368 48.7364 16.5427C48.4687 15.9653 48.5814 15.2893 49.0323 14.8387L49.7649 14.1065C50.3567 13.515 50.3567 12.5715 49.7649 11.98L43.7769 5.99514C43.1851 5.40369 42.2411 5.40369 41.6494 5.99514L41.5226 6.12192C41.0294 6.61479 40.2545 6.68518 39.6487 6.31905C38.0988 5.38963 36.4222 4.6292 34.661 4.08C34.0269 3.88285 33.5761 3.3055 33.5761 2.64364C33.5761 1.81279 32.8998 1.13684 32.0685 1.13684H23.6007C22.7694 1.13684 22.0931 1.81279 22.0931 2.64364C22.0931 3.31958 21.6422 3.88285 21.0082 4.08C19.247 4.6292 17.5704 5.38963 16.0205 6.31905C15.4147 6.68518 14.6538 6.61479 14.1466 6.12192L14.0198 5.99514C13.4281 5.40369 12.484 5.40369 11.8923 5.99514L5.90423 11.98C5.31247 12.5715 5.31247 13.515 5.90423 14.1065L6.63691 14.8387C7.08778 15.2893 7.18639 15.9653 6.93278 16.5427C6.29875 17.9509 5.7915 19.4295 5.45336 20.9644C5.29837 21.6685 4.70664 22.1755 3.98808 22.1755H2.57912C1.74784 22.1755 1.07153 22.8515 1.07153 23.6823V32.1456C1.07153 32.9765 1.74784 33.6524 2.57912 33.6524H5.18569C5.80563 33.6524 6.34102 34.0467 6.58054 34.61C7.03141 35.7225 7.56682 36.7928 8.17267 37.8067C8.539 38.4122 8.46853 39.1726 7.97539 39.6655L5.93244 41.7074C5.34068 42.2988 5.34068 43.2424 5.93244 43.8338L11.9205 49.8187C12.5122 50.4101 13.4562 50.4101 14.048 49.8187L16.6827 47.1853C17.1336 46.7347 17.8099 46.6361 18.3876 46.8896C19.2329 47.2839 20.1206 47.6078 21.0223 47.9035C21.6563 48.1007 22.1072 48.678 22.1072 49.3399V53.1562C22.1072 53.987 22.7835 54.6629 23.6148 54.6629H32.0826C32.9139 54.6629 33.5901 53.987 33.5901 53.1562V49.3399C33.5901 48.6639 34.041 48.1007 34.6751 47.9035C35.5768 47.6219 36.4644 47.2839 37.3098 46.8896C37.8875 46.622 38.5638 46.7347 39.0146 47.1853L41.6494 49.8187C42.2411 50.4101 43.1851 50.4101 43.7769 49.8187L49.7649 43.8338C50.3567 43.2424 50.3567 42.2988 49.7649 41.7074L47.7219 39.6655C47.2288 39.1726 47.1584 38.4122 47.5247 37.8067C48.1306 36.7928 48.666 35.7225 49.1168 34.61C49.3423 34.0326 49.8917 33.6524 50.5117 33.6524H53.1183C53.9214 33.6524 54.5976 32.9765 54.5976 32.1456Z" stroke="white" stroke-width="2" stroke-linecap="round" stroke-linejoin="round"/>
</svg>