<svg xmlns="http://www.w3.org/2000/svg" width="16" height="19" viewBox="0 0 16 19" fill="none">
    <path d="M5.26463 9.27599L7.0195 11.0309L10.968 7.0824M14.9164 9.71471C14.9164 14.0216 10.2187 17.154 8.50938 18.1512C8.31513 18.2645 8.218 18.3212 8.08092 18.3505C7.97454 18.3734 7.81934 18.3734 7.71296 18.3505C7.57588 18.3212 7.47875 18.2645 7.2845 18.1512C5.57521 17.154 0.877441 14.0216 0.877441 9.71471V5.51845C0.877441 4.81693 0.877441 4.46617 0.992175 4.16466C1.09353 3.8983 1.25823 3.66063 1.47204 3.47221C1.71407 3.25891 2.0425 3.13575 2.69936 2.88943L7.404 1.12519C7.58641 1.05678 7.67762 1.02258 7.77145 1.00902C7.85468 0.996993 7.9392 0.996993 8.02243 1.00902C8.11626 1.02258 8.20747 1.05678 8.38988 1.12519L13.0945 2.88943C13.7514 3.13575 14.0798 3.25891 14.3218 3.47221C14.5356 3.66063 14.7003 3.8983 14.8017 4.16466C14.9164 4.46617 14.9164 4.81693 14.9164 5.51845V9.71471Z" stroke="#828282" stroke-linecap="round" stroke-linejoin="round"/>
</svg>