<svg xmlns="http://www.w3.org/2000/svg" width="18" height="18" viewBox="0 0 18 18" fill="none">
    <path d="M8.89694 16.7911C13.2583 16.7911 16.7939 13.2555 16.7939 8.89413C16.7939 4.53277 13.2583 0.997192 8.89694 0.997192C4.53558 0.997192 1 4.53277 1 8.89413C1 13.2555 4.53558 16.7911 8.89694 16.7911Z" stroke="#828282" stroke-linecap="round" stroke-linejoin="round"/>
    <path d="M5.73816 6.99886C5.73816 6.55659 5.73816 6.33546 5.82423 6.16653C5.89994 6.01794 6.02075 5.89714 6.16934 5.82143C6.33827 5.73535 6.5594 5.73535 7.00167 5.73535H10.7922C11.2345 5.73535 11.4556 5.73535 11.6245 5.82143C11.7731 5.89714 11.8939 6.01794 11.9696 6.16653C12.0557 6.33546 12.0557 6.55659 12.0557 6.99886V10.7894C12.0557 11.2317 12.0557 11.4528 11.9696 11.6217C11.8939 11.7703 11.7731 11.8911 11.6245 11.9668C11.4556 12.0529 11.2345 12.0529 10.7922 12.0529H7.00167C6.5594 12.0529 6.33827 12.0529 6.16934 11.9668C6.02075 11.8911 5.89994 11.7703 5.82423 11.6217C5.73816 11.4528 5.73816 11.2317 5.73816 10.7894V6.99886Z" stroke="#828282" stroke-linecap="round" stroke-linejoin="round"/>
</svg>